<svg width="80" height="80" viewBox="0 0 80 80" fill="none" xmlns="http://www.w3.org/2000/svg">
<path d="M39.9481 56.4156C39.3256 56.4156 38.703 56.3117 38.0804 56.1039V80H41.8159V56.1039C41.1933 56.3117 40.5707 56.4156 39.9481 56.4156Z" fill="#009B2D"/>
<path d="M62.4644 18.9091L77.5098 0H46.1738C49.3904 5.4026 54.1635 11.8442 62.4644 18.9091Z" fill="#AFCD69"/>
<path d="M76.5759 64.1038C72.1141 68.2597 66.1997 70.5454 59.8703 70.5454C54.6822 70.5454 49.7017 68.9869 45.5512 66.0778V79.9999H79.7925V60.3636C78.9624 61.7142 77.821 62.961 76.5759 64.1038Z" fill="#AFCD69"/>
<path d="M33.7224 0H2.38652L17.4319 18.9091C25.7328 11.8442 30.5058 5.4026 33.7224 0Z" fill="#AFCD69"/>
<path d="M69.6238 24.4156C73.8781 27.4286 77.3022 30.8572 79.6887 34.5974C79.7925 34.7013 79.8962 34.9091 80 35.013V3.013L65.3696 21.2987C66.7185 22.3377 68.0674 23.3766 69.6238 24.4156Z" fill="#AFCD69"/>
<path d="M19.9222 70.5454C13.5927 70.5454 7.67834 68.2597 3.2166 64.1038C2.07523 62.961 0.933852 61.7142 0 60.3636V79.9999H34.2412V66.0778C30.1946 68.9869 25.214 70.5454 19.9222 70.5454Z" fill="#AFCD69"/>
<path d="M0.311284 34.4935C2.6978 30.7533 6.01816 27.3247 10.3761 24.3117C11.8288 23.2727 13.2815 22.2338 14.6304 21.1948L0 3.013V35.013C0.103761 34.8052 0.207523 34.7013 0.311284 34.4935Z" fill="#AFCD69"/>
<path d="M41.8159 0V44.6753L59.9741 21.8182C50.2205 13.6104 45.24 6.02597 41.8159 0ZM45.4475 36.5714C44.0986 36.5714 43.061 35.4286 43.061 34.0779C43.061 32.7273 44.0986 31.5844 45.4475 31.5844C46.7964 31.5844 47.834 32.7273 47.834 34.0779C47.9378 35.4286 46.7964 36.5714 45.4475 36.5714Z" fill="#009B2D"/>
<path d="M79.6887 46.026C79.1699 39.8961 75.5383 33.2468 67.4449 27.5325C65.8885 26.3896 64.4358 25.3507 62.9832 24.2078L45.1362 46.5455C45.4475 47.065 45.7588 47.5844 45.8625 48.2078H79.8963C79.8963 47.4806 79.7925 46.7533 79.6887 46.026ZM55.0973 45.8182C53.4371 45.8182 52.192 44.4676 52.192 42.8052C52.192 41.1429 53.5409 39.7922 55.0973 39.7922C56.7575 39.7922 58.0026 41.1429 58.0026 42.8052C58.1064 44.4676 56.7575 45.8182 55.0973 45.8182Z" fill="#009B2D"/>
<path d="M45.9662 52.0519C45.3437 54.0259 43.7873 55.5843 41.9196 56.2077C45.1362 62.4415 51.9844 66.8051 59.974 66.8051C69.6238 66.8051 77.7172 60.4675 79.5849 52.0519H45.9662ZM51.3618 60.9869C49.4941 60.9869 48.0415 59.4285 48.0415 57.6623C48.0415 55.7921 49.4941 54.3376 51.3618 54.3376C53.2295 54.3376 54.6822 55.896 54.6822 57.6623C54.6822 59.4285 53.2295 60.9869 51.3618 60.9869Z" fill="#009B2D"/>
<path d="M19.8184 21.8182L38.0804 44.6753V0C34.6563 6.02597 29.6757 13.6104 19.8184 21.8182ZM34.4488 36.5714C33.0999 36.5714 32.0622 35.4286 32.0622 34.0779C32.0622 32.7273 33.0999 31.5844 34.4488 31.5844C35.7977 31.5844 36.8353 32.7273 36.8353 34.0779C36.8353 35.4286 35.7977 36.5714 34.4488 36.5714Z" fill="#009B2D"/>
<path d="M16.9131 24.2078C15.5642 25.2468 14.0078 26.3896 12.4514 27.5325C4.35798 33.2468 0.72633 39.8961 0.207523 46.026C0.103761 46.7533 0 47.4806 0 48.2078H33.93C34.1375 47.6883 34.345 47.065 34.6563 46.6494L16.9131 24.2078ZM24.6952 45.8182C23.035 45.8182 21.7899 44.4676 21.7899 42.8052C21.7899 41.1429 23.1388 39.7922 24.6952 39.7922C26.3554 39.7922 27.6005 41.1429 27.6005 42.8052C27.7043 44.4676 26.3554 45.8182 24.6952 45.8182Z" fill="#009B2D"/>
<path d="M33.9305 52.0519H0.415558C2.28326 60.4675 10.3766 66.8051 20.0265 66.8051C28.0161 66.8051 34.8643 62.4415 38.0809 56.2077C36.1095 55.4805 34.553 54.0259 33.9305 52.0519ZM28.5349 60.9869C26.6672 60.9869 25.2145 59.4285 25.2145 57.6623C25.2145 55.7921 26.6672 54.3376 28.5349 54.3376C30.4026 54.3376 31.8552 55.896 31.8552 57.6623C31.8552 59.4285 30.4026 60.9869 28.5349 60.9869Z" fill="#009B2D"/>
</svg>
